<svg viewBox="0 0 1000 620" xmlns="http://www.w3.org/2000/svg">
  <defs>
    <style>
      @import url('https://fonts.googleapis.com/css2?family=Inter+Tight:wght@400;500;600&amp;family=Space+Mono:wght@400;700&amp;display=swap');
    </style>
  </defs>

  <!-- Background: Midnight -->
  <rect width="1000" height="620" fill="#C1F0FF"/>

  <!-- Xorq Logo in corner - brand mark only -->
  <g transform="translate(900, 555)">
    <path fill="#05181A" transform="scale(0.045)" d="M1265.28,269.75c-50.18,0-90.86,40.68-90.86,90.86v85.93c0,50.18,40.68,90.86,90.86,90.86h734.72v267.66h-827.67v-175.26c0-49.97-40.35-90.56-90.32-90.86l-162.93-.98c-50.39-.3-91.41,40.47-91.41,90.86v178.33H0v-269.75l734.95-1.86c50.09-.13,90.63-40.77,90.63-90.86v-84.07c0-50.18-40.68-90.86-90.86-90.86H0V0h827.67v178.89c0,50.18,40.68,90.86,90.86,90.86h162.93c50.18,0,90.86-40.68,90.86-90.86V0h827.67v269.75h-734.72Z"/>
  </g>

  <!-- Title -->
  <text x="500" y="45" text-anchor="middle" fill="#05181A" font-family="'Inter Tight', sans-serif" font-size="28" font-weight="600">Vertical silos → Horizontal stack</text>

  <!-- ==================== LEFT: Vertical Silos ==================== -->
  <g transform="translate(40, 75)">
    <text x="150" y="0" text-anchor="middle" fill="#05181A" font-family="'Space Mono', monospace" font-size="11" font-weight="700" letter-spacing="1">[THE OLD WAY]</text>
    <text x="150" y="20" text-anchor="middle" fill="#05181A" opacity="0.6" font-family="'Inter Tight', sans-serif" font-size="12">Isolated towers, forced order</text>

    <!-- Ground -->
    <rect x="0" y="320" width="300" height="4" rx="2" fill="#05181A" opacity="0.2"/>

    <!-- Four silos -->
    <g transform="translate(10, 100)">
      <!-- Silo 1 -->
      <g transform="translate(0, 0)">
        <rect x="5" y="30" width="60" height="190" rx="4" fill="#A8E4F5" stroke="#05181A" stroke-opacity="0.3" stroke-width="1"/>
        <ellipse cx="35" cy="30" rx="30" ry="12" fill="#A8E4F5" stroke="#05181A" stroke-opacity="0.3" stroke-width="1"/>
        <line x1="5" y1="80" x2="65" y2="80" stroke="#05181A" stroke-opacity="0.15" stroke-width="1"/>
        <line x1="5" y1="130" x2="65" y2="130" stroke="#05181A" stroke-opacity="0.15" stroke-width="1"/>
        <line x1="5" y1="180" x2="65" y2="180" stroke="#05181A" stroke-opacity="0.15" stroke-width="1"/>
        <text x="35" y="235" text-anchor="middle" fill="#05181A" opacity="0.8" font-family="'Space Mono', monospace" font-size="7" font-weight="700">FEATURE</text>
        <text x="35" y="246" text-anchor="middle" fill="#05181A" opacity="0.8" font-family="'Space Mono', monospace" font-size="7" font-weight="700">STORE</text>
      </g>

      <rect x="70" y="25" width="4" height="195" fill="#FFFFFF" stroke="#05181A" stroke-opacity="0.2" stroke-width="1"/>

      <!-- Silo 2 -->
      <g transform="translate(75, 0)">
        <rect x="5" y="30" width="60" height="190" rx="4" fill="#A8E4F5" stroke="#05181A" stroke-opacity="0.3" stroke-width="1"/>
        <ellipse cx="35" cy="30" rx="30" ry="12" fill="#A8E4F5" stroke="#05181A" stroke-opacity="0.3" stroke-width="1"/>
        <line x1="5" y1="80" x2="65" y2="80" stroke="#05181A" stroke-opacity="0.15" stroke-width="1"/>
        <line x1="5" y1="130" x2="65" y2="130" stroke="#05181A" stroke-opacity="0.15" stroke-width="1"/>
        <line x1="5" y1="180" x2="65" y2="180" stroke="#05181A" stroke-opacity="0.15" stroke-width="1"/>
        <text x="35" y="235" text-anchor="middle" fill="#05181A" opacity="0.8" font-family="'Space Mono', monospace" font-size="7" font-weight="700">MODEL</text>
        <text x="35" y="246" text-anchor="middle" fill="#05181A" opacity="0.8" font-family="'Space Mono', monospace" font-size="7" font-weight="700">REGISTRY</text>
      </g>

      <rect x="145" y="25" width="4" height="195" fill="#FFFFFF" stroke="#05181A" stroke-opacity="0.2" stroke-width="1"/>

      <!-- Silo 3 -->
      <g transform="translate(150, 0)">
        <rect x="5" y="30" width="60" height="190" rx="4" fill="#A8E4F5" stroke="#05181A" stroke-opacity="0.3" stroke-width="1"/>
        <ellipse cx="35" cy="30" rx="30" ry="12" fill="#A8E4F5" stroke="#05181A" stroke-opacity="0.3" stroke-width="1"/>
        <line x1="5" y1="80" x2="65" y2="80" stroke="#05181A" stroke-opacity="0.15" stroke-width="1"/>
        <line x1="5" y1="130" x2="65" y2="130" stroke="#05181A" stroke-opacity="0.15" stroke-width="1"/>
        <line x1="5" y1="180" x2="65" y2="180" stroke="#05181A" stroke-opacity="0.15" stroke-width="1"/>
        <text x="35" y="235" text-anchor="middle" fill="#05181A" opacity="0.8" font-family="'Space Mono', monospace" font-size="7" font-weight="700">ORCH-</text>
        <text x="35" y="246" text-anchor="middle" fill="#05181A" opacity="0.8" font-family="'Space Mono', monospace" font-size="7" font-weight="700">ESTRATOR</text>
      </g>

      <rect x="220" y="25" width="4" height="195" fill="#FFFFFF" stroke="#05181A" stroke-opacity="0.2" stroke-width="1"/>

      <!-- Silo 4 -->
      <g transform="translate(225, 0)">
        <rect x="5" y="30" width="60" height="190" rx="4" fill="#A8E4F5" stroke="#05181A" stroke-opacity="0.3" stroke-width="1"/>
        <ellipse cx="35" cy="30" rx="30" ry="12" fill="#A8E4F5" stroke="#05181A" stroke-opacity="0.3" stroke-width="1"/>
        <line x1="5" y1="80" x2="65" y2="80" stroke="#05181A" stroke-opacity="0.15" stroke-width="1"/>
        <line x1="5" y1="130" x2="65" y2="130" stroke="#05181A" stroke-opacity="0.15" stroke-width="1"/>
        <line x1="5" y1="180" x2="65" y2="180" stroke="#05181A" stroke-opacity="0.15" stroke-width="1"/>
        <text x="35" y="235" text-anchor="middle" fill="#05181A" opacity="0.8" font-family="'Space Mono', monospace" font-size="7" font-weight="700">SERVING</text>
      </g>
    </g>

    <!-- Forced path -->
    <g transform="translate(10, 75)">
      <path d="M35,0 L35,18 L110,18 L110,0" fill="none" stroke="#05181A" stroke-width="1.5" stroke-dasharray="4,3" opacity="0.5"/>
      <path d="M110,0 L110,18 L185,18 L185,0" fill="none" stroke="#05181A" stroke-width="1.5" stroke-dasharray="4,3" opacity="0.5"/>
      <path d="M185,0 L185,18 L260,18 L260,0" fill="none" stroke="#05181A" stroke-width="1.5" stroke-dasharray="4,3" opacity="0.5"/>
    </g>

    <!-- LLM (frustrated) -->
    <g transform="translate(50, 350)">
      <rect x="0" y="0" width="200" height="55" rx="4" fill="#FFFFFF" stroke="#05181A" stroke-width="1" stroke-dasharray="4,2" opacity="0.5"/>
      <text x="100" y="22" text-anchor="middle" fill="#05181A" font-family="'Space Mono', monospace" font-size="11" font-weight="700">[LLM / AGENT]</text>
      <text x="100" y="40" text-anchor="middle" fill="#05181A" opacity="0.5" font-family="'Inter Tight', sans-serif" font-size="10">? different APIs per silo</text>

      <path d="M40,-8 L40,-25" fill="none" stroke="#05181A" stroke-width="1" stroke-dasharray="3,2" opacity="0.4"/>
      <path d="M100,-8 L100,-25" fill="none" stroke="#05181A" stroke-width="1" stroke-dasharray="3,2" opacity="0.4"/>
      <path d="M160,-8 L160,-25" fill="none" stroke="#05181A" stroke-width="1" stroke-dasharray="3,2" opacity="0.4"/>

      <text x="40" y="-30" text-anchor="middle" fill="#05181A" opacity="0.6" font-family="'Space Mono', monospace" font-size="10">✗</text>
      <text x="100" y="-30" text-anchor="middle" fill="#05181A" opacity="0.6" font-family="'Space Mono', monospace" font-size="10">✗</text>
      <text x="160" y="-30" text-anchor="middle" fill="#05181A" opacity="0.6" font-family="'Space Mono', monospace" font-size="10">✗</text>
    </g>

    <!-- Problems -->
    <g transform="translate(20, 425)">
      <text x="0" y="0" fill="#05181A" opacity="0.5" font-family="'Inter Tight', sans-serif" font-size="10">✗ No unified interface</text>
      <text x="0" y="18" fill="#05181A" opacity="0.5" font-family="'Inter Tight', sans-serif" font-size="10">✗ Context lost at boundaries</text>
      <text x="0" y="36" fill="#05181A" opacity="0.5" font-family="'Inter Tight', sans-serif" font-size="10">✗ Can't dynamically compose</text>
      <text x="0" y="54" fill="#05181A" opacity="0.5" font-family="'Inter Tight', sans-serif" font-size="10">✗ Hardcoded, not discoverable</text>
    </g>
  </g>

  <!-- Center Arrow -->
  <g transform="translate(355, 290)">
    <line x1="0" y1="0" x2="70" y2="0" stroke="#05181A" stroke-width="2"/>
    <polygon points="70,-6 85,0 70,6" fill="#05181A"/>
  </g>

  <!-- ==================== RIGHT: Horizontal Stack ==================== -->
  <g transform="translate(470, 75)">
    <text x="240" y="0" text-anchor="middle" fill="#05181A" font-family="'Space Mono', monospace" font-size="11" font-weight="700" letter-spacing="1">[THE HORIZONTAL STACK]</text>
    <text x="240" y="20" text-anchor="middle" fill="#05181A" opacity="0.6" font-family="'Inter Tight', sans-serif" font-size="12">Composable blocks, any arrangement</text>

    <!-- Available Blocks Palette - simple pills -->
    <g transform="translate(0, 40)">
      <rect x="0" y="0" width="65" height="36" rx="6" fill="#05181A"/>
      <text x="32" y="23" text-anchor="middle" fill="#C1F0FF" font-family="'Space Mono', monospace" font-size="9" font-weight="700">READ</text>

      <rect x="72" y="0" width="65" height="36" rx="6" fill="#05181A"/>
      <text x="104" y="23" text-anchor="middle" fill="#C1F0FF" font-family="'Space Mono', monospace" font-size="9" font-weight="700">FILTER</text>

      <rect x="144" y="0" width="65" height="36" rx="6" fill="#05181A"/>
      <text x="176" y="23" text-anchor="middle" fill="#C1F0FF" font-family="'Space Mono', monospace" font-size="9" font-weight="700">AGG</text>

      <rect x="216" y="0" width="65" height="36" rx="6" fill="#05181A"/>
      <text x="248" y="23" text-anchor="middle" fill="#C1F0FF" font-family="'Space Mono', monospace" font-size="9" font-weight="700">UDF</text>

      <rect x="288" y="0" width="65" height="36" rx="6" fill="#05181A"/>
      <text x="320" y="23" text-anchor="middle" fill="#C1F0FF" font-family="'Space Mono', monospace" font-size="9" font-weight="700">CACHE</text>

      <rect x="360" y="0" width="90" height="36" rx="6" fill="#05181A" stroke="#05181A" stroke-width="1"/>
      <text x="405" y="18" text-anchor="middle" fill="#C1F0FF" font-family="'Space Mono', monospace" font-size="7" font-weight="700">INTO_BACKEND</text>
      <text x="405" y="30" text-anchor="middle" fill="#C1F0FF" font-family="'Space Mono', monospace" font-size="7" opacity="0.7">(engine)</text>
    </g>

    <!-- Transformation area -->
    <g transform="translate(0, 95)">
      <rect x="0" y="0" width="450" height="170" rx="4" fill="#FFFFFF" stroke="#05181A" stroke-width="1" stroke-dasharray="4,2" opacity="0.5"/>
      <text x="225" y="20" text-anchor="middle" fill="#05181A" opacity="0.7" font-family="'Space Mono', monospace" font-size="9" letter-spacing="1">[ANY TRANSFORMATION, MINIMAL RECOMPUTATION]</text>

      <!-- Composition examples - simple connected pills -->
      <g transform="translate(15, 35)">
        <!-- Row 1: READ → FILTER → into_backend(snowflake) → AGG -->
        <g transform="translate(0, 0)">
          <rect x="0" y="0" width="50" height="26" rx="4" fill="#05181A"/>
          <text x="25" y="17" text-anchor="middle" fill="#C1F0FF" font-family="'Space Mono', monospace" font-size="8" font-weight="700">READ</text>

          <line x1="50" y1="13" x2="58" y2="13" stroke="#05181A" stroke-width="2"/>

          <rect x="58" y="0" width="50" height="26" rx="4" fill="#05181A"/>
          <text x="83" y="17" text-anchor="middle" fill="#C1F0FF" font-family="'Space Mono', monospace" font-size="8" font-weight="700">FILTER</text>

          <line x1="108" y1="13" x2="116" y2="13" stroke="#05181A" stroke-width="2"/>

          <rect x="116" y="0" width="75" height="26" rx="4" fill="#05181A" stroke="#05181A" stroke-width="1"/>
          <text x="153" y="12" text-anchor="middle" fill="#C1F0FF" font-family="'Space Mono', monospace" font-size="6" font-weight="700">INTO_BACKEND</text>
          <text x="153" y="22" text-anchor="middle" fill="#C1F0FF" font-family="'Space Mono', monospace" font-size="6" opacity="0.7">(snowflake)</text>

          <line x1="191" y1="13" x2="199" y2="13" stroke="#05181A" stroke-width="2"/>

          <rect x="199" y="0" width="50" height="26" rx="4" fill="#05181A"/>
          <text x="224" y="17" text-anchor="middle" fill="#C1F0FF" font-family="'Space Mono', monospace" font-size="8" font-weight="700">AGG</text>
        </g>

        <!-- Row 2: READ → into_backend(duckdb) → UDF → CACHE -->
        <g transform="translate(20, 40)">
          <rect x="0" y="0" width="50" height="26" rx="4" fill="#05181A"/>
          <text x="25" y="17" text-anchor="middle" fill="#C1F0FF" font-family="'Space Mono', monospace" font-size="8" font-weight="700">READ</text>

          <line x1="50" y1="13" x2="58" y2="13" stroke="#05181A" stroke-width="2"/>

          <rect x="58" y="0" width="75" height="26" rx="4" fill="#05181A" stroke="#05181A" stroke-width="1"/>
          <text x="95" y="12" text-anchor="middle" fill="#C1F0FF" font-family="'Space Mono', monospace" font-size="6" font-weight="700">INTO_BACKEND</text>
          <text x="95" y="22" text-anchor="middle" fill="#C1F0FF" font-family="'Space Mono', monospace" font-size="6" opacity="0.7">(duckdb)</text>

          <line x1="133" y1="13" x2="141" y2="13" stroke="#05181A" stroke-width="2"/>

          <rect x="141" y="0" width="50" height="26" rx="4" fill="#05181A"/>
          <text x="166" y="17" text-anchor="middle" fill="#C1F0FF" font-family="'Space Mono', monospace" font-size="8" font-weight="700">UDF</text>

          <line x1="191" y1="13" x2="199" y2="13" stroke="#05181A" stroke-width="2"/>

          <rect x="199" y="0" width="50" height="26" rx="4" fill="#05181A"/>
          <text x="224" y="17" text-anchor="middle" fill="#C1F0FF" font-family="'Space Mono', monospace" font-size="8" font-weight="700">CACHE</text>
        </g>

        <!-- Row 3: READ → FILTER → into_backend(datafusion) → UDF → AGG -->
        <g transform="translate(0, 80)">
          <rect x="0" y="0" width="45" height="26" rx="4" fill="#05181A"/>
          <text x="22" y="17" text-anchor="middle" fill="#C1F0FF" font-family="'Space Mono', monospace" font-size="7" font-weight="700">READ</text>

          <line x1="45" y1="13" x2="51" y2="13" stroke="#05181A" stroke-width="2"/>

          <rect x="51" y="0" width="45" height="26" rx="4" fill="#05181A"/>
          <text x="73" y="17" text-anchor="middle" fill="#C1F0FF" font-family="'Space Mono', monospace" font-size="7" font-weight="700">FILTER</text>

          <line x1="96" y1="13" x2="102" y2="13" stroke="#05181A" stroke-width="2"/>

          <rect x="102" y="0" width="75" height="26" rx="4" fill="#05181A" stroke="#05181A" stroke-width="1"/>
          <text x="139" y="12" text-anchor="middle" fill="#C1F0FF" font-family="'Space Mono', monospace" font-size="6" font-weight="700">INTO_BACKEND</text>
          <text x="139" y="22" text-anchor="middle" fill="#C1F0FF" font-family="'Space Mono', monospace" font-size="6" opacity="0.7">(datafusion)</text>

          <line x1="177" y1="13" x2="183" y2="13" stroke="#05181A" stroke-width="2"/>

          <rect x="183" y="0" width="45" height="26" rx="4" fill="#05181A"/>
          <text x="205" y="17" text-anchor="middle" fill="#C1F0FF" font-family="'Space Mono', monospace" font-size="7" font-weight="700">UDF</text>

          <line x1="228" y1="13" x2="234" y2="13" stroke="#05181A" stroke-width="2"/>

          <rect x="234" y="0" width="45" height="26" rx="4" fill="#05181A"/>
          <text x="256" y="17" text-anchor="middle" fill="#C1F0FF" font-family="'Space Mono', monospace" font-size="7" font-weight="700">AGG</text>
        </g>
      </g>

      <!-- Output manifests -->
      <g transform="translate(295, 38)">
        <line x1="-30" y1="10" x2="0" y2="10" stroke="#05181A" stroke-width="1" stroke-dasharray="3,2" opacity="0.5"/>
        <rect x="0" y="0" width="75" height="22" rx="11" fill="#FFFFFF" stroke="#05181A"/>
        <text x="37" y="15" text-anchor="middle" fill="#05181A" font-family="'Space Mono', monospace" font-size="8">28ecab08</text>

        <line x1="-30" y1="50" x2="0" y2="50" stroke="#05181A" stroke-width="1" stroke-dasharray="3,2" opacity="0.5"/>
        <rect x="0" y="40" width="75" height="22" rx="11" fill="#FFFFFF" stroke="#05181A"/>
        <text x="37" y="55" text-anchor="middle" fill="#05181A" font-family="'Space Mono', monospace" font-size="8">9f3a21bc</text>

        <line x1="-30" y1="90" x2="0" y2="90" stroke="#05181A" stroke-width="1" stroke-dasharray="3,2" opacity="0.5"/>
        <rect x="0" y="80" width="75" height="22" rx="11" fill="#FFFFFF" stroke="#05181A"/>
        <text x="37" y="95" text-anchor="middle" fill="#05181A" font-family="'Space Mono', monospace" font-size="8">e7b5fd7c</text>
      </g>

      <!-- Engines -->
      <g transform="translate(380, 38)">
        <text x="30" y="0" text-anchor="middle" fill="#05181A" opacity="0.6" font-family="'Space Mono', monospace" font-size="7">[ENGINES]</text>
        <rect x="0" y="10" width="60" height="22" rx="3" fill="#FFFFFF" stroke="#05181A" stroke-width="1" opacity="0.7"/>
        <text x="30" y="25" text-anchor="middle" fill="#05181A" font-family="'Space Mono', monospace" font-size="7">DUCKDB</text>
        <rect x="0" y="38" width="60" height="22" rx="3" fill="#FFFFFF" stroke="#05181A" stroke-width="1" opacity="0.7"/>
        <text x="30" y="53" text-anchor="middle" fill="#05181A" font-family="'Space Mono', monospace" font-size="7">SNOWFLAKE</text>
        <rect x="0" y="66" width="60" height="22" rx="3" fill="#FFFFFF" stroke="#05181A" stroke-width="1"/>
        <text x="30" y="81" text-anchor="middle" fill="#05181A" font-family="'Space Mono', monospace" font-size="7">DATAFUSION</text>
      </g>
    </g>

    <!-- ==================== LLM LAYER ==================== -->
    <g transform="translate(0, 285)">
      <rect x="0" y="0" width="450" height="80" rx="4" fill="#FFFFFF" stroke="#05181A" stroke-width="2"/>

      <text x="225" y="25" text-anchor="middle" fill="#05181A" font-family="'Space Mono', monospace" font-size="13" font-weight="700">[LLM / AGENT]</text>

      <!-- Interaction arrows -->
      <g transform="translate(60, -12)">
        <line x1="0" y1="0" x2="0" y2="12" stroke="#05181A" stroke-width="1.5"/>
        <polygon points="-4,0 0,-7 4,0" fill="#05181A"/>
        <text x="0" y="26" text-anchor="middle" fill="#05181A" opacity="0.5" font-family="'Space Mono', monospace" font-size="7">DISCOVER</text>
      </g>
      <g transform="translate(150, -12)">
        <line x1="0" y1="0" x2="0" y2="12" stroke="#05181A" stroke-width="1.5"/>
        <polygon points="-4,12 0,19 4,12" fill="#05181A"/>
        <text x="0" y="26" text-anchor="middle" fill="#05181A" opacity="0.5" font-family="'Space Mono', monospace" font-size="7">COMPOSE</text>
      </g>
      <g transform="translate(300, -12)">
        <line x1="0" y1="0" x2="0" y2="12" stroke="#05181A" stroke-width="1.5"/>
        <polygon points="-4,0 0,-7 4,0" fill="#05181A"/>
        <text x="0" y="26" text-anchor="middle" fill="#05181A" opacity="0.5" font-family="'Space Mono', monospace" font-size="7">READ</text>
      </g>
      <g transform="translate(390, -12)">
        <line x1="0" y1="0" x2="0" y2="12" stroke="#05181A" stroke-width="1.5"/>
        <polygon points="-4,12 0,19 4,12" fill="#05181A"/>
        <text x="0" y="26" text-anchor="middle" fill="#05181A" opacity="0.5" font-family="'Space Mono', monospace" font-size="7">EXECUTE</text>
      </g>

      <!-- Context and Skills boxes -->
      <g transform="translate(25, 42)">
        <rect x="0" y="0" width="185" height="28" rx="3" fill="#FFFFFF" stroke="#05181A"/>
        <text x="92" y="12" text-anchor="middle" fill="#05181A" font-family="'Space Mono', monospace" font-size="9" font-weight="700">CONTEXT = MANIFEST</text>
        <text x="92" y="24" text-anchor="middle" fill="#05181A" opacity="0.5" font-family="'Inter Tight', sans-serif" font-size="8">structured, diffable YAML</text>
      </g>
      <g transform="translate(240, 42)">
        <rect x="0" y="0" width="185" height="28" rx="3" fill="#FFFFFF" stroke="#05181A"/>
        <text x="92" y="12" text-anchor="middle" fill="#05181A" font-family="'Space Mono', monospace" font-size="9" font-weight="700">SKILLS = TOOLS</text>
        <text x="92" y="24" text-anchor="middle" fill="#05181A" opacity="0.5" font-family="'Inter Tight', sans-serif" font-size="8">catalog, build, run</text>
      </g>
    </g>

    <!-- Benefits -->
    <g transform="translate(0, 385)">
      <text x="0" y="0" fill="#05181A" font-family="'Inter Tight', sans-serif" font-size="10">✓ Unified interface for agents</text>
      <text x="0" y="18" fill="#05181A" font-family="'Inter Tight', sans-serif" font-size="10">✓ Discover blocks via catalog</text>
      <text x="0" y="36" fill="#05181A" font-family="'Inter Tight', sans-serif" font-size="10">✓ Compose dynamically</text>
      <text x="0" y="54" fill="#05181A" font-family="'Inter Tight', sans-serif" font-size="10">✓ Read manifests as context</text>

      <g transform="translate(220, 0)">
        <text x="0" y="0" fill="#05181A" font-family="'Inter Tight', sans-serif" font-size="10">✓ Execute deterministically</text>
        <text x="0" y="18" fill="#05181A" font-family="'Inter Tight', sans-serif" font-size="10">✓ Cache across invocations</text>
        <text x="0" y="36" fill="#05181A" font-family="'Inter Tight', sans-serif" font-size="10">✓ Lineage for debugging</text>
        <text x="0" y="54" fill="#05181A" font-family="'Inter Tight', sans-serif" font-size="10">✓ into_backend for any engine</text>
      </g>
    </g>
  </g>
</svg>
